<svg width="30" height="42" viewBox="0 0 30 42" fill="none" xmlns="http://www.w3.org/2000/svg">
<path d="M25.3703 3.40918H23.3274C22.5909 3.40918 21.994 4.00674 21.994 4.74386V12.1765C21.994 12.9136 22.5909 13.5112 23.3274 13.5112H25.3703C26.1068 13.5112 26.7037 12.9136 26.7037 12.1765V4.74386C26.7037 4.00674 26.1068 3.40918 25.3703 3.40918Z" fill="#8DD69C"/>
<path d="M17.7316 41.3259V34.2846H26.3911L18.8802 41.8028C18.7861 41.8971 18.6661 41.9612 18.5355 41.9871C18.405 42.013 18.2696 41.9998 18.1466 41.9487C18.0237 41.8977 17.9186 41.8112 17.8447 41.7003C17.7708 41.5896 17.7314 41.4592 17.7316 41.3259Z" fill="#8DD69C"/>
<path d="M28.7306 12.9991L16.2687 0.524119C15.9317 0.188442 15.4755 0 15.0001 0C14.5246 0 14.0685 0.188442 13.7315 0.524119L1.26975 12.9991C0.509299 13.8456 0.061218 14.9272 0 16.064V18.2614C6.8083 23.3316 15.0713 26.0635 23.5572 26.0499C25.7153 26.0502 27.8699 25.8747 29.9996 25.5249V16.064C29.9377 14.9275 29.4901 13.8462 28.7306 12.9991Z" fill="#8DD69C"/>
<path d="M23.5575 28.0703C15.0716 28.0837 6.80865 25.3518 0.000305176 20.2818V32.1517C0.00184516 32.6276 0.191357 33.0834 0.527474 33.4197C0.863588 33.7563 1.31901 33.9459 1.79435 33.9474H28.2061C28.6813 33.9459 29.1367 33.7561 29.4729 33.4197C29.8089 33.0832 29.9984 32.6274 29.9999 32.1517V27.5453C27.8702 27.8951 25.7156 28.0707 23.5575 28.0703Z" fill="#8DD69C"/>
</svg>
